:SAMPLES-PER-SECOND 30
:FULLY-SPECIFIED
:DEGREES
437
root  -12.5373 34.5795 -17.3047 -170.451 0.677551 179.945
RightUpLeg  -9.63566 -13.9867 -0.237041
RightLeg  6.7101 -1.26162 -0.0773526
RightFoot  3.40706 0.0107548 0.0643076
RightToes  -23.287 -0.108165 -0.209785
Spine  -2.59204 0.160458 0.345548
Spine1  -5.27505 0.420899 1.24562
HEad  -64.5981 2.22959 4.24805
LeftShoulder1  -1.94126e-019 -3.10601e-018 -2.51263e-017
LeftArm  -12.6288 25.6884 -82.5181
LeftForeArm  32.2792 -13.7337 -2.26096
LeftHand  -0.330286 -0.601777 6.50443
RightShoulder  -4.96962e-017 0 -2.36833e-017
RightArm  -25.3552 -24.4988 76.2895
RightForeArm  47.1662 14.7842 1.34463
RightHand  -0.194919 -2.85854 -8.448
LeftUpLeg  -7.96502 3.32825 1.31534
LeftLeg  6.52195 13.734 0.673914
LeftFoot  3.26538 -0.0272067 0.915533
LeftToes  -19.1204 1.48347e-006 1.01831e-007
438
root  -12.5344 34.5775 -17.3272 -170.41 0.803497 179.96
RightUpLeg  -9.64037 -13.8505 -0.222836
RightLeg  6.67928 -1.2734 -0.0773294
RightFoot  3.40203 0.0107288 0.0646796
RightToes  -23.2899 -0.108165 -0.209785
Spine  -2.59123 0.147786 0.349411
Spine1  -5.27324 0.391616 1.25215
HEad  -64.3895 2.11785 4.37895
LeftShoulder1  -1.94126e-019 -3.10601e-018 -2.51263e-017
LeftArm  -12.6698 25.6103 -82.4327
LeftForeArm  32.2745 -13.9323 -2.29347
LeftHand  -0.309753 -0.4988 6.20212
RightShoulder  -4.96962e-017 0 -2.36833e-017
RightArm  -25.4611 -24.5671 76.2756
RightForeArm  47.2535 14.7574 1.34436
RightHand  -0.193545 -2.89896 -8.50611
LeftUpLeg  -7.94608 3.41539 1.31993
LeftLeg  6.5202 13.7734 0.675395
LeftFoot  3.22311 -0.0266303 0.906574
LeftToes  -19.068 1.48347e-006 1.01831e-007
439
root  -12.5342 34.5759 -17.3565 -170.366 0.919601 179.981
RightUpLeg  -9.61757 -13.707 -0.207971
RightLeg  6.61016 -1.31865 -0.0715492
RightFoot  3.41284 0.0107174 0.0648423
RightToes  -23.1485 -0.108165 -0.209785
Spine  -2.59654 0.135117 0.357449
Spine1  -5.28331 0.362472 1.26599
HEad  -64.0948 2.02508 4.45883
LeftShoulder1  -1.94126e-019 -3.10601e-018 -2.51263e-017
LeftArm  -12.6723 25.5486 -82.3755
LeftForeArm  32.3042 -14.1728 -2.3317
LeftHand  -0.310429 -0.537072 6.17882
RightShoulder  -4.96962e-017 0 -2.36833e-017
RightArm  -25.6503 -24.646 76.2694
RightForeArm  47.2918 14.7252 1.34572
RightHand  -0.19411 -2.84221 -8.47612
LeftUpLeg  -7.93979 3.5721 1.32957
LeftLeg  6.52669 13.7353 0.684104
LeftFoot  3.19848 -0.0260245 0.897157
LeftToes  -18.9829 1.48347e-006 1.01831e-007
440
root  -12.537 34.574 -17.3887 -170.322 0.985779 -179.999
RightUpLeg  -9.56665 -13.6187 -0.198436
RightLeg  6.50605 -1.35365 -0.0655488
RightFoot  3.44534 0.0107241 0.0647467
RightToes  -23.1142 -0.108165 -0.209785
Spine  -2.60581 0.103317 0.369778
Spine1  -5.30127 0.295677 1.28902
HEad  -63.85 2.00109 4.5516
LeftShoulder1  -1.94126e-019 -3.10601e-018 -2.51263e-017
LeftArm  -12.5737 25.5334 -82.3499
LeftForeArm  32.221 -14.5029 -2.38055
LeftHand  -0.301166 -0.479113 6.05039
RightShoulder  -4.96962e-017 0 -2.36833e-017
RightArm  -25.7498 -24.7605 76.2707
RightForeArm  47.2654 14.7715 1.34297
RightHand  -0.196076 -2.7168 -8.38305
LeftUpLeg  -7.92758 3.62168 1.33498
LeftLeg  6.53467 13.7664 0.682085
LeftFoot  3.18862 -0.0259347 0.895762
LeftToes  -18.9762 1.48347e-006 1.01831e-007
441
root  -12.538 34.5704 -17.4242 -170.278 1.03471 -179.972
RightUpLeg  -9.50849 -13.5822 -0.18097
RightLeg  6.40208 -1.33795 -0.0623472
RightFoot  3.49768 0.0107523 0.0643438
RightToes  -23.1409 -0.108165 -0.209785
Spine  -2.62278 0.0748516 0.384094
Spine1  -5.3348 0.235304 1.31475
HEad  -63.5136 1.95675 4.5889
LeftShoulder1  -1.94126e-019 -3.10601e-018 -2.51263e-017
LeftArm  -12.5152 25.5043 -82.3508
LeftForeArm  32.2017 -14.7244 -2.41421
LeftHand  -0.30104 -0.533484 5.99726
RightShoulder  -4.96962e-017 0 -2.36833e-017
RightArm  -25.8754 -24.8849 76.2938
RightForeArm  47.2256 14.7921 1.34248
RightHand  -0.195748 -2.66529 -8.38849
LeftUpLeg  -7.93335 3.71198 1.35544
LeftLeg  6.58514 13.7243 0.688467
LeftFoot  3.15662 -0.0252227 0.884696
LeftToes  -19.0152 1.48347e-006 1.01831e-007
442
root  -12.5414 34.5656 -17.4601 -170.233 1.05266 -179.941
RightUpLeg  -9.43738 -13.6082 -0.158828
RightLeg  6.28255 -1.29853 -0.0577702
RightFoot  3.53726 0.0108054 0.0635848
RightToes  -23.2136 -0.108165 -0.209785
Spine  -2.64523 0.0439489 0.407346
Spine1  -5.37941 0.170588 1.35746
HEad  -63.2353 1.94299 4.64915
LeftShoulder1  -1.94126e-019 -3.10601e-018 -2.51263e-017
LeftArm  -12.5023 25.4795 -82.4283
LeftForeArm  32.1498 -14.8558 -2.43469
LeftHand  -0.304515 -0.587722 6.01554
RightShoulder  -4.96962e-017 0 -2.36833e-017
RightArm  -25.9955 -25.0142 76.3133
RightForeArm  47.1687 14.811 1.34262
RightHand  -0.196469 -2.69111 -8.3644
LeftUpLeg  -7.95692 3.85446 1.3758
LeftLeg  6.66559 13.6102 0.701813
LeftFoot  3.09362 -0.0237732 0.862166
LeftToes  -19.1296 1.48347e-006 1.01831e-007
443
root  -12.5444 34.5594 -17.4937 -170.19 1.01006 -179.913
RightUpLeg  -9.37248 -13.7335 -0.13451
RightLeg  6.18141 -1.22356 -0.052215
RightFoot  3.55117 0.0108869 0.0624208
RightToes  -23.1792 -0.108165 -0.209785
Spine  -2.66535 0.00819473 0.428603
Spine1  -5.41958 0.096314 1.39618
HEad  -62.9497 1.857 4.6877
LeftShoulder1  -1.94126e-019 -3.10601e-018 -2.51263e-017
LeftArm  -12.4884 25.4346 -82.5266
LeftForeArm  32.1532 -14.9999 -2.45796
LeftHand  -0.305407 -0.578734 6.04124
RightShoulder  -4.96962e-017 0 -2.36833e-017
RightArm  -26.2003 -25.1185 76.3534
RightForeArm  47.1834 14.7914 1.34362
RightHand  -0.197313 -2.68633 -8.33129
LeftUpLeg  -7.98773 3.99758 1.40171
LeftLeg  6.74767 13.4225 0.711392
LeftFoot  2.98487 -0.0213671 0.824769
LeftToes  -19.0839 1.48347e-006 1.01831e-007
444
root  -12.5482 34.5551 -17.5187 -170.14 0.931427 -179.9
RightUpLeg  -9.34041 -13.8293 -0.120665
RightLeg  6.12187 -1.19197 -0.0496022
RightFoot  3.54959 0.0110001 0.0608027
RightToes  -23.23 -0.108165 -0.209785
Spine  -2.67914 -0.027165 0.441053
Spine1  -5.44734 0.023781 1.41764
HEad  -62.8415 1.80126 4.7326
LeftShoulder1  -1.94126e-019 -3.10601e-018 -2.51263e-017
LeftArm  -12.444 25.3809 -82.5712
LeftForeArm  32.0981 -15.2236 -2.49246
LeftHand  -0.292187 -0.699031 5.67921
RightShoulder  -4.96962e-017 0 -2.36833e-017
RightArm  -26.3858 -25.188 76.4146
RightForeArm  47.2092 14.7679 1.34464
RightHand  -0.197176 -2.69727 -8.3381
LeftUpLeg  -8.04336 4.01346 1.41329
LeftLeg  6.81749 13.3399 0.723234
LeftFoot  2.92118 -0.0200684 0.804584
LeftToes  -19.1019 1.48347e-006 1.01831e-007
